<?xml version="1.0" encoding="UTF-8"?>
<svg id="SVG" xmlns="http://www.w3.org/2000/svg" viewBox="0 0 223.4 48.5">
  <defs>
    <style>
      .cls-1 {
        fill: #f0efef;
      }
    </style>
  </defs>
  <polygon class="cls-1" points="39.7 13.6 52.9 13.6 52.9 10.4 39.7 10.4 39.7 3.6 54.8 3.6 54.8 .3 36 .3 36 24 55.1 24 55.1 20.8 39.7 20.8 39.7 13.6"/>
  <polygon class="cls-1" points="72.6 13.6 85.9 13.6 85.9 10.4 72.6 10.4 72.6 3.6 87.8 3.6 87.8 .3 69 .3 69 24 88.1 24 88.1 20.8 72.6 20.8 72.6 13.6"/>
  <path class="cls-1" d="m112.9.3h-10.9v23.7h10.9c3.7,0,6.5-1.1,8.6-3.2,2.1-2.4,3.2-5.5,3.1-8.6,0-3.7-1-6.5-3.1-8.6s-5-3.2-8.6-3.3Zm5.8,18.1c-1.3,1.6-3.3,2.3-6,2.3h-7V3.7h7c2.2-.2,4.4.7,6,2.2,1.4,1.7,2.1,3.9,2,6.1.1,2.3-.6,4.5-2,6.4h0Z"/>
  <polygon class="cls-1" points="134.5 3.7 143.8 3.7 143.8 24 147.6 24 147.6 3.7 156.9 3.7 156.9 .3 134.5 .3 134.5 3.7"/>
  <path class="cls-1" d="m173.9.3l-10.2,23.7h4l2.6-6.1h11.7l2.6,6.1h4L178.4.3h-4.5Zm-2.3,14.5l4.4-10.4h.2l4.4,10.4s-9,0-9,0Z"/>
  <path class="cls-1" d="m211.3,11.4v3h8.4c-.1,3.5-3.7,6.7-8.2,6.7-2.9,0-5.2-.8-6.8-2.3-1.6-1.6-2.4-3.9-2.3-6.1-.1-2.4.8-4.8,2.5-6.6,1.9-1.8,4.4-2.7,7-2.5h0c1.6,0,3.2.3,4.7,1.1,1,.6,1.9,1.4,2.4,2.5h4.1c-.5-2-1.8-3.8-3.5-4.9-2.2-1.5-4.9-2.2-7.6-2.1C208.4,0,204.9,1.3,202.2,3.7c-2.4,2.4-3.7,5.6-3.6,9,0,3.7,1,6.4,3.3,8.6s5.4,3.3,9.3,3.3c7.8,0,12.1-5.1,12.1-10v-3l-12-.2h0Z"/>
  <path class="cls-1" d="m21.8,6.8c-.3-3.8-3.8-6.8-10.6-6.8S.9,2.9.9,6.8s3.7,5.9,9.8,6.8c6.1.8,7.6,2.6,7.6,4.2s-1.2,3.5-6.8,3.5-7.3-2.2-7.7-4.3H0c.3,4.4,4.1,7.3,11.5,7.3,7,0,10.6-2.8,10.6-6.6,0-4.2-3.7-6.4-8.9-7.2-4.9-.7-8.4-1.4-8.4-3.9,0-1.1.9-3.4,6.5-3.4s6.3,2.3,6.6,3.6h3.9Z"/>
  <g>
    <path class="cls-1" d="m140.2,35.9h2.5l-2.6,12h-2l.1-1.6h-.2c-1.1,1.2-2.5,1.9-4.1,1.9-1.4,0-2.5-.4-3.3-1.3-.8-.9-1.3-2.1-1.3-3.6,0-2.1.7-3.8,2-5.3s3-2.3,4.9-2.3c.9,0,1.6.2,2.2.5.6.3,1.1.7,1.3,1.2l.5-1.5Zm-5.6,10.2c1.2,0,2.3-.5,3.1-1.6s1.3-2.3,1.3-3.6c0-.9-.2-1.7-.7-2.2s-1.1-.8-1.9-.8c-1.2,0-2.3.5-3.2,1.6-.9,1-1.3,2.2-1.3,3.6,0,1,.2,1.7.7,2.3.6.4,1.2.7,2,.7Z"/>
    <path class="cls-1" d="m150.7,35.9l-2.6,12h-2.5l2.6-12h2.5Zm-.5-1.8c-.4,0-.8-.2-1.1-.5s-.5-.7-.5-1.1.2-.8.5-1.1c.3-.3.7-.4,1.1-.4s.8.1,1.1.4.5.7.5,1.1-.2.8-.5,1.1c-.4.4-.7.5-1.1.5Z"/>
    <path class="cls-1" d="m162.2,35.7h.9l-.5,2.5c-.4,0-.8-.1-1.2-.1-1.1,0-1.9.4-2.7,1.1-.7.7-1.2,1.6-1.4,2.7l-1.3,6.1h-2.5l2.6-12h2.2l-.1,1.7h.2c.5-.7,1.1-1.1,1.6-1.5.6-.4,1.3-.5,2.2-.5Z"/>
    <path class="cls-1" d="m168.4,30.9h2.5l-3.6,17.1h-2.5l3.6-17.1Z"/>
    <path class="cls-1" d="m177.7,35.9l-2.6,12h-2.5l2.6-12h2.5Zm-.5-1.8c-.4,0-.8-.2-1.1-.5s-.5-.7-.5-1.1.2-.8.5-1.1c.3-.3.7-.4,1.1-.4s.8.1,1.1.4.5.7.5,1.1-.2.8-.5,1.1c-.3.4-.7.5-1.1.5Z"/>
    <path class="cls-1" d="m189.3,35.7c1.4,0,2.4.4,3.1,1.3.7.9.8,2.1.5,3.6l-1.6,7.4h-2.5l1.5-6.9c.2-1.1.1-1.9-.3-2.4-.4-.5-1-.8-1.8-.8s-1.6.3-2.3.9c-.7.6-1.2,1.4-1.4,2.5l-1.4,6.7h-2.5l2.6-12h2.2l-.1,1.4h.2c1.1-1.1,2.3-1.7,3.8-1.7Z"/>
    <path class="cls-1" d="m208.8,42.6h-8.9c-.2,1.1,0,2,.5,2.6.5.7,1.3,1,2.3,1,1.6,0,2.7-.6,3.3-1.9h2.4c-.5,1.2-1.3,2.1-2.3,2.8s-2.2,1-3.7,1-2.7-.4-3.7-1.3c-.9-.9-1.4-2-1.4-3.4,0-2.1.7-3.9,2.1-5.5,1.4-1.5,3.1-2.3,5-2.3,1.4,0,2.5.4,3.4,1.2s1.3,1.9,1.3,3.3c.1.9,0,1.7-.3,2.5Zm-2.4-4c-.5-.6-1.1-.9-2.1-.9s-1.8.3-2.5.9c-.8.6-1.3,1.4-1.6,2.2h6.6c.2-.9.1-1.6-.4-2.2Z"/>
    <path class="cls-1" d="m222.3,44.1c0,1.3-.5,2.3-1.4,3s-2.1,1.1-3.7,1.1-2.7-.4-3.4-1.1c-.7-.7-1-1.7-.8-2.9h2.4c-.1.7.1,1.3.5,1.6s1,.5,1.7.5,1.3-.2,1.8-.5.7-.8.7-1.3c0-.4-.2-.8-.5-1s-.8-.5-1.4-.6l-.7-.2c-2-.6-3-1.5-3-2.9,0-1.2.5-2.1,1.4-2.9.9-.8,2.1-1.1,3.5-1.1s2.5.3,3.2,1,.9,1.5.8,2.5h-2.3c0-.5-.1-.9-.4-1.2-.3-.3-.8-.5-1.4-.5s-1.2.2-1.6.5c-.4.4-.7.8-.7,1.3,0,.3.1.5.3.7s.4.3.6.4c.2.1.5.2,1,.3l.6.2c1.8.6,2.8,1.6,2.8,3.1Z"/>
  </g>
</svg>